<svg version="1.0" xmlns="http://www.w3.org/2000/svg"
 width="1302.000000pt" height="1302.000000pt" viewBox="0 0 1302.000000 1302.000000"
 preserveAspectRatio="xMidYMid meet">
<g transform="translate(0.000000,1302.000000) scale(0.100000,-0.100000)"
fill="#000000" stroke="none">
<path d="M6220 12944 c-19 -2 -80 -9 -135 -15 -445 -50 -870 -223 -1255 -513
-111 -83 -348 -316 -440 -431 -265 -333 -460 -771 -521 -1166 l-13 -86 -120
-7 c-680 -39 -1313 -333 -1751 -816 -101 -112 -118 -132 -191 -230 -243 -328
-426 -776 -469 -1146 -3 -27 -10 -80 -14 -119 -13 -106 -11 -417 4 -535 53
-415 189 -793 397 -1104 294 -438 673 -758 1138 -959 145 -62 355 -130 475
-152 112 -22 213 -36 282 -42 l83 -6 2 -2161 c3 -2339 0 -2192 56 -2261 39
-48 98 -83 150 -89 26 -3 223 -8 437 -12 215 -3 391 -7 392 -8 1 0 3 -229 5
-508 2 -279 6 -509 9 -510 2 -2 41 -2 87 0 l82 4 39 60 c21 33 44 68 50 77 6
9 36 59 68 111 31 52 60 97 65 98 4 2 8 8 8 13 0 10 209 350 220 359 4 3 9 10
11 16 10 26 84 144 90 144 8 0 80 -113 82 -127 0 -4 8 -16 18 -26 9 -10 25
-35 35 -55 11 -20 25 -43 32 -50 7 -8 22 -30 33 -51 11 -20 27 -48 37 -63 70
-109 142 -228 142 -236 0 -6 4 -12 8 -14 11 -5 122 -183 122 -197 0 -6 4 -11
8 -11 5 0 14 -11 20 -25 11 -24 15 -25 102 -25 l90 0 0 515 0 515 1495 0 1496
0 48 24 c26 14 63 42 81 63 l34 38 -28 3 c-19 3 -37 -4 -55 -21 -14 -14 -42
-33 -61 -43 -34 -18 -90 -19 -1520 -19 l-1485 0 -3 148 -3 147 1358 0 c747 0
1391 0 1431 0 l72 0 0 30 0 30 -102 0 c-57 0 -700 0 -1430 0 l-1328 0 0 85 0
85 1400 0 1400 0 0 30 0 30 -1400 0 -1401 0 3 93 3 92 1428 3 1427 2 0 30 0
30 -1430 0 -1430 0 0 155 0 155 1473 0 c1007 0 1484 -3 1510 -11 46 -12 110
-68 127 -109 10 -24 19 -30 41 -30 l29 0 0 1753 0 1753 108 24 c382 83 771
274 1082 530 59 49 254 240 311 305 315 363 528 846 595 1345 20 157 20 489
-1 640 -82 585 -321 1074 -720 1475 -217 218 -419 364 -693 500 -240 119 -545
212 -782 240 -30 4 -66 8 -80 10 -14 2 -78 7 -143 10 -109 7 -118 9 -121 29
-3 11 -15 75 -27 141 -97 526 -410 1065 -829 1426 -399 343 -844 539 -1395
614 -53 7 -410 14 -455 9z m370 -54 c595 -52 1121 -291 1548 -704 110 -107
262 -283 262 -303 0 -6 7 -13 15 -17 8 -3 15 -12 15 -21 0 -8 4 -15 9 -15 17
0 130 -190 206 -345 107 -217 183 -452 220 -677 l12 -76 -91 -7 c-198 -14
-316 -32 -491 -76 -113 -28 -265 -79 -265 -89 0 -18 75 -21 120 -5 89 31 277
75 415 96 185 29 511 31 690 5 176 -25 377 -72 465 -109 14 -5 33 -12 43 -14
35 -6 193 -75 309 -134 322 -165 617 -411 848 -709 33 -44 59 -80 56 -80 -3 0
2 -8 12 -18 43 -43 187 -301 247 -442 66 -155 146 -428 159 -541 3 -25 7 -52
10 -60 12 -31 18 -134 23 -336 4 -163 1 -244 -12 -345 -16 -133 -58 -341 -78
-388 -5 -14 -12 -36 -14 -49 -14 -83 -205 -508 -250 -556 -11 -11 -20 -24 -21
-30 -1 -5 -32 -55 -70 -110 -84 -121 -236 -300 -329 -385 -156 -144 -371 -301
-498 -365 -33 -16 -63 -33 -66 -37 -7 -11 -218 -104 -314 -140 -102 -38 -383
-110 -397 -102 -5 4 -9 53 -8 123 2 64 2 214 1 334 l-1 217 -25 0 -25 0 0
-2070 0 -2069 -28 26 c-15 14 -47 35 -72 47 l-45 21 -2615 3 c-1845 2 -2630 0
-2665 -8 -31 -6 -70 -26 -103 -50 l-52 -40 0 1684 0 1683 188 6 c272 9 503 49
742 129 52 18 97 33 100 33 54 12 430 205 471 241 8 8 19 14 23 14 15 0 249
185 319 252 54 52 66 67 47 63 -48 -13 -100 -45 -177 -110 -95 -81 -278 -205
-398 -270 -96 -52 -269 -131 -300 -137 -11 -1 -22 -6 -25 -9 -8 -10 -157 -56
-265 -83 -570 -141 -1165 -80 -1690 173 -260 126 -451 259 -659 461 -213 207
-363 409 -492 663 -118 232 -211 512 -239 717 -2 19 -10 67 -16 105 -20 114
-17 527 4 665 84 541 312 1005 682 1388 374 387 850 641 1375 732 115 20 407
47 415 38 3 -3 1 -34 -4 -69 -9 -66 -7 -410 4 -489 29 -223 83 -450 150 -629
38 -101 131 -307 151 -331 6 -8 21 -34 32 -56 24 -47 147 -228 199 -291 26
-33 41 -43 64 -43 16 0 29 3 29 6 0 3 -20 29 -44 57 -109 129 -255 371 -335
560 -52 119 -135 367 -126 375 3 3 1 10 -4 16 -11 13 -45 187 -61 312 -14 112
-18 363 -7 502 8 103 42 326 53 343 3 5 8 26 10 45 2 19 26 102 53 184 166
501 470 922 901 1242 98 73 236 159 244 151 3 -4 6 -2 6 4 0 21 378 192 455
206 11 2 32 9 48 15 45 19 173 49 297 71 213 38 426 49 630 31z m-1860 -10755
l0 -155 -300 0 -300 0 0 -30 0 -30 300 0 300 0 0 -95 0 -95 -300 0 -300 0 0
-30 0 -30 300 0 300 0 0 -85 0 -85 -300 0 -300 0 0 -30 0 -30 300 0 300 0 0
-150 0 -150 -385 0 c-235 0 -403 4 -434 11 -34 7 -64 23 -95 50 -74 65 -76 81
-76 513 0 204 4 388 9 409 17 71 78 136 147 157 16 4 210 9 432 9 l402 1 0
-155z m1410 -946 l0 -1100 -42 3 -42 3 -283 455 c-155 250 -282 459 -283 463
0 5 -6 15 -14 23 -16 15 15 62 -416 -634 l-194 -312 -43 0 -43 0 0 1093 c0
602 3 1097 7 1100 3 4 309 7 680 7 l673 0 0 -1101z"/>
</g>
</svg>
