<svg version="1.0" xmlns="http://www.w3.org/2000/svg"
 width="543.000000pt" height="319.000000pt" viewBox="0 0 543.000000 319.000000"
 preserveAspectRatio="xMidYMid meet">
<g transform="translate(0.000000,319.000000) scale(0.100000,-0.100000)"
fill="#000000" stroke="none">
<path d="M1355 2794 c-162 -41 -297 -124 -428 -263 -36 -39 -74 -83 -84 -98
-9 -16 -27 -40 -39 -55 -36 -45 -112 -210 -129 -279 -33 -142 -12 -251 61
-319 79 -73 118 -85 274 -85 114 0 147 4 210 23 92 29 214 90 284 141 67 49
177 171 174 191 -6 28 -37 22 -65 -12 -45 -54 -106 -111 -153 -143 -119 -78
-279 -133 -415 -142 -120 -8 -185 11 -239 66 -35 36 -40 47 -44 100 -11 153
106 376 299 570 98 98 183 160 281 205 89 41 134 50 176 35 81 -28 68 -130
-32 -252 -39 -47 -162 -137 -188 -137 -8 0 -18 -4 -23 -9 -6 -4 -39 -14 -75
-21 -98 -18 -120 -29 -120 -56 0 -25 10 -29 65 -25 67 5 200 61 295 124 71 47
159 137 186 190 35 67 41 132 16 176 -29 53 -80 75 -181 77 -48 2 -95 1 -106
-2z"/>
<path d="M4977 2226 c-20 -8 -63 -33 -94 -57 -53 -40 -366 -300 -443 -368 -39
-34 -46 -37 -53 -18 -3 9 -9 9 -23 1 -13 -7 -21 -27 -24 -58 -5 -38 -14 -54
-49 -89 -26 -26 -39 -33 -32 -20 29 58 221 545 221 562 0 22 -19 31 -63 31
-42 0 -48 -6 -82 -64 -16 -27 -52 -73 -81 -101 -46 -45 -75 -63 -161 -96 -22
-8 -31 -33 -15 -42 16 -10 117 13 163 38 l49 25 -6 -27 c-11 -48 -94 -273
-141 -383 -83 -195 -178 -345 -275 -435 -76 -71 -129 -98 -193 -98 -63 -1 -93
15 -111 59 -19 44 -54 48 -54 5 0 -38 38 -92 80 -114 52 -27 149 -19 222 17
73 36 179 146 275 286 66 98 93 131 210 268 44 52 63 58 63 22 0 -29 55 -183
92 -256 76 -152 223 -223 339 -164 58 30 75 89 44 155 -13 26 -49 55 -70 55
-11 0 -4 -47 8 -65 18 -26 27 -63 20 -81 -9 -25 -67 -16 -112 16 -45 33 -149
167 -186 240 -24 48 -75 194 -75 215 0 27 170 163 340 272 101 65 137 86 240
141 84 45 100 60 100 92 0 50 -45 63 -123 36z"/>
<path d="M2130 2216 c-231 -49 -450 -220 -521 -406 -27 -70 -41 -173 -29 -204
14 -39 38 -33 45 12 23 139 112 284 237 385 119 95 211 137 343 157 419 63
558 -315 273 -741 -165 -247 -395 -355 -572 -269 -103 50 -141 121 -140 265 1
87 10 126 57 225 95 204 323 353 460 301 37 -14 47 -14 47 3 0 27 -67 74 -117
82 -109 16 -272 -41 -372 -132 -114 -103 -172 -232 -174 -389 -2 -149 33 -251
116 -338 252 -268 829 15 932 458 19 82 21 234 5 296 -49 182 -207 293 -433
304 -57 3 -117 -1 -157 -9z"/>
<path d="M3330 2216 c-231 -49 -450 -220 -521 -406 -27 -70 -41 -173 -29 -204
14 -39 38 -33 45 12 23 139 112 284 237 385 119 95 211 137 343 157 419 63
558 -315 273 -741 -165 -247 -395 -355 -572 -269 -103 50 -141 121 -140 265 1
87 10 126 57 225 95 204 323 353 460 301 37 -14 47 -14 47 3 0 27 -67 74 -117
82 -109 16 -272 -41 -372 -132 -114 -103 -172 -232 -174 -389 -2 -149 33 -251
116 -338 252 -268 829 15 932 458 19 82 21 234 5 296 -49 182 -207 293 -433
304 -57 3 -117 -1 -157 -9z"/>
<path d="M1189 1525 c-2 -2 -33 -6 -69 -10 -36 -3 -73 -9 -83 -12 -11 -3 -29
-7 -40 -8 -84 -14 -166 -34 -220 -54 -12 -5 -26 -10 -32 -11 -24 -5 -127 -64
-180 -102 -52 -38 -128 -118 -144 -152 -34 -69 -25 -144 22 -194 32 -34 91
-62 132 -62 54 0 45 26 -19 54 -71 31 -91 61 -77 113 31 116 211 227 478 294
240 61 468 74 548 33 47 -24 70 -62 61 -99 -7 -29 -75 -105 -94 -105 -6 0 -12
-3 -14 -7 -2 -7 -93 -55 -108 -58 -3 0 -34 -10 -70 -22 -63 -21 -89 -27 -160
-38 -36 -6 -80 -44 -80 -71 0 -8 51 -65 114 -127 127 -124 166 -187 166 -267
0 -60 -28 -103 -92 -143 -28 -18 -53 -31 -54 -30 -2 1 -25 -4 -51 -11 -127
-34 -226 12 -254 118 -22 81 -44 85 -111 19 -93 -92 -82 -23 31 192 170 322
309 495 398 495 45 0 24 44 -33 71 -62 28 -106 14 -183 -57 -62 -57 -101 -122
-101 -167 0 -14 -11 -46 -23 -69 -173 -314 -247 -479 -247 -546 0 -33 4 -41
23 -46 51 -14 77 -6 115 33 l37 38 17 -36 c66 -136 383 -133 537 5 95 85 136
216 96 310 -15 38 -134 164 -153 164 -7 0 -12 4 -12 10 0 5 -21 21 -46 36 -48
28 -46 44 7 44 42 0 180 39 245 69 123 57 184 142 170 236 -6 36 -17 55 -52
90 -40 40 -56 51 -67 43 -2 -2 -11 3 -19 10 -9 7 -31 15 -49 18 -42 7 -255 14
-260 9z"/>
</g>
</svg>
